<?xml version="1.0" standalone="no"?>
<!DOCTYPE svg PUBLIC "-//W3C//DTD SVG 1.1//EN" "http://www.w3.org/Graphics/SVG/1.1/DTD/svg11.dtd" >
<svg xmlns="http://www.w3.org/2000/svg">
<metadata></metadata>
<defs>
<font id="sf_sports_nightregular" horiz-adv-x="1365" >
<font-face units-per-em="2048" ascent="1638" descent="-410" />
<missing-glyph horiz-adv-x="796" />
<glyph horiz-adv-x="2048" />
<glyph horiz-adv-x="2048" />
<glyph unicode="&#xd;" horiz-adv-x="796" />
<glyph unicode=" "  horiz-adv-x="796" />
<glyph unicode="&#x09;" horiz-adv-x="796" />
<glyph unicode="&#xa0;" horiz-adv-x="796" />
<glyph unicode="!" horiz-adv-x="455" d="M-61 0l61 341h339l-61 -341h-339zM16 455l161 910h342l-162 -910h-341z" />
<glyph unicode="&#x22;" horiz-adv-x="853" d="M48 1024l59 341h341l-59 -341l-212 -228l41 228h-170zM446 1024l59 341h342l-60 -341l-211 -228l41 228h-171z" />
<glyph unicode="'" horiz-adv-x="455" d="M48 1024l59 341h341l-59 -341l-212 -228l41 228h-170z" />
<glyph unicode="(" horiz-adv-x="728" d="M30 416q0 115 27 267q43 245 135 424q91 178 279 372h341q-195 -189 -294 -369q-99 -179 -143 -427q-25 -140 -25 -255q0 -281 180 -540h-341q-159 262 -159 528z" />
<glyph unicode=")" horiz-adv-x="728" d="M-82 -112q97 94 170 185t122 182q51 91 86 197t57 231q25 140 25 255q0 278 -180 541h341q160 -262 160 -530q0 -58 -7 -124.5t-21 -141.5q-43 -246 -135 -425q-91 -176 -279 -370h-339z" />
<glyph unicode="," horiz-adv-x="455" d="M48 0l59 341h341l-59 -341l-212 -225l41 225h-170z" />
<glyph unicode="." horiz-adv-x="455" d="M27 0l59 341h342l-59 -341h-342z" />
<glyph unicode="/" horiz-adv-x="612" d="M-132 -71l551 1568l327 -59l-555 -1568z" />
<glyph unicode="0" d="M-9 264q0 14 1 27.5t3 27.5l89 523h410l-75 -432h432l75 432h410l-91 -523q-23 -133 -134 -226q-110 -93 -242 -93h-614q-117 0 -190 75q-74 77 -74 189zM105 956l16 91q22 132 132 225q111 93 243 93h614q117 0 192 -75t75 -189q0 -14 -1.5 -27t-3.5 -27l-16 -91h-1251z " />
<glyph unicode="1" horiz-adv-x="523" d="M-61 0l145 842h410l-148 -842h-407zM105 956l72 409h410l-73 -409h-409z" />
<glyph unicode="2" d="M-61 0l91 523q22 133 131 225q109 94 242 94h933q-23 -132 -132 -226q-110 -93 -241 -93h-524l-20 -113h842l-73 -410h-1249zM105 956l72 409h933q117 0 192 -75t75 -189q0 -14 -1.5 -27t-3.5 -27l-16 -91h-1251z" />
<glyph unicode="3" d="M-61 0l70 410h842l21 113h-387l54 319h797q-12 -70 -116 -159q63 -78 63 -137q0 -5 -0.5 -11t-1.5 -12l-36 -204q-23 -133 -134 -226q-110 -93 -242 -93h-930zM105 956l72 409h933q117 0 192 -75t75 -189q0 -14 -1.5 -27t-3.5 -27l-16 -91h-1251z" />
<glyph unicode="4" d="M30 523l54 319h1252l-148 -842h-410l94 523h-842zM105 956l72 409h410l-73 -409h-409zM947 956l72 409h410l-73 -409h-409z" />
<glyph unicode="5" d="M-61 0l70 410h842l21 113h-524q-118 0 -193 75q-75 76 -75 189q0 14 1 27.5t3 27.5h933q119 0 194 -75t75 -187q0 -14 -1.5 -28.5t-3.5 -28.5l-36 -204q-23 -133 -134 -226q-110 -93 -242 -93h-930zM105 956l72 409h1252l-73 -409h-1251z" />
<glyph unicode="6" d="M-9 264q0 14 1 27.5t3 27.5l89 523h933q119 0 194 -75t75 -187q0 -14 -1.5 -28.5t-3.5 -28.5l-36 -204q-23 -133 -134 -226q-110 -93 -242 -93h-614q-117 0 -190 75q-74 77 -74 189zM105 956l16 91q22 132 132 225q111 93 243 93h933l-73 -409h-1251zM419 410h432l21 113 h-433z" />
<glyph unicode="7" d="M-61 0l607 842h503l-612 -842h-498zM105 956l72 409h1252l-298 -409h-1026z" />
<glyph unicode="8" d="M-9 262q0 14 1 28.5t3 28.5l35 204q11 71 116 160q-64 76 -64 136q0 6 0.5 12t1.5 11h1252q-12 -70 -116 -159q63 -78 63 -137q0 -5 -0.5 -11t-1.5 -12l-36 -204q-23 -133 -134 -226q-110 -93 -242 -93h-614q-117 0 -190 75q-74 77 -74 187zM105 956l16 91 q22 132 132 225q111 93 243 93h614q117 0 192 -75t75 -189q0 -14 -1.5 -27t-3.5 -27l-16 -91h-1251zM419 410h432l21 113h-433z" />
<glyph unicode="9" d="M-61 0l70 410h842l21 113h-524q-118 0 -193 75q-75 76 -75 187q0 15 1 29t3 28h1252l-91 -523q-23 -133 -134 -226q-110 -93 -242 -93h-930zM105 956l16 91q22 132 132 225q111 93 243 93h614q117 0 192 -75t75 -189q0 -14 -1.5 -27t-3.5 -27l-16 -91h-1251z" />
<glyph unicode=":" horiz-adv-x="455" d="M-25 0l57 341h341l-59 -341h-339zM82 614l59 342h341l-59 -342h-341z" />
<glyph unicode=";" horiz-adv-x="455" d="M-5 0l57 341h342l-59 -341l-212 -225l41 225h-169zM100 614l62 342h341l-62 -342h-341z" />
<glyph unicode="?" horiz-adv-x="1138" d="M-61 0l61 341h339l-61 -341h-339zM16 455l32 182q20 114 114 193q95 80 209 80h410l18 114h-683l61 341h751q101 0 165 -64q65 -63 65 -161q0 -28 -4 -48l-46 -250q-18 -114 -113 -194q-94 -79 -208 -79h-409l-21 -114h-341z" />
<glyph unicode="A" horiz-adv-x="1297" d="M-118 0l357 842h305h105l-135 -319h216l-25 319h410l61 -842h-409l-14 182h-387l-77 -182h-407zM287 956l175 409h614l30 -409h-819z" />
<glyph unicode="B" horiz-adv-x="1411" d="M-61 0l145 842h1297q-11 -71 -116 -159q64 -76 64 -137q0 -5 -0.5 -11t-1.5 -12l-37 -204q-22 -130 -133 -226q-110 -93 -242 -93h-976zM105 956l72 409h979q116 0 191 -75t75 -189q0 -14 -1 -27t-3 -27l-16 -91h-1297zM419 410h478l20 113h-478z" />
<glyph unicode="C" d="M-9 262q0 14 1 28.5t3 28.5l89 523h410l-75 -432h842l-73 -410h-933q-117 0 -190 75q-74 77 -74 187zM105 956l16 91q22 132 132 225q111 93 243 93h933l-73 -409h-1251z" />
<glyph unicode="D" d="M-61 0l145 842h410l-75 -432h432l75 432h410l-91 -523q-23 -133 -134 -226q-110 -93 -242 -93h-930zM105 956l72 409h933q117 0 192 -75t75 -189q0 -14 -1.5 -27t-3.5 -27l-16 -91h-1251z" />
<glyph unicode="E" horiz-adv-x="1252" d="M-61 0l145 842h1138l-55 -319h-728l-20 -113h728l-73 -410h-1135zM105 956l72 409h1138l-73 -409h-1137z" />
<glyph unicode="F" horiz-adv-x="1252" d="M-61 0l145 842h1138l-55 -319h-728l-93 -523h-407zM105 956l72 409h1138l-73 -409h-1137z" />
<glyph unicode="G" d="M-9 262q0 14 1 28.5t3 28.5l89 523h410l-75 -432h432l21 113h-183l55 319h592l-91 -523q-23 -133 -134 -226q-110 -93 -242 -93h-614q-117 0 -190 75q-74 77 -74 187zM105 956l16 91q22 132 132 225q111 93 243 93h933l-73 -409h-1251z" />
<glyph unicode="H" d="M-61 0l145 842h1252l-148 -842h-410l94 523h-433l-93 -523h-407zM105 956l72 409h410l-73 -409h-409zM947 956l72 409h410l-73 -409h-409z" />
<glyph unicode="I" horiz-adv-x="523" d="M-61 0l145 842h410l-148 -842h-407zM105 956l72 409h410l-73 -409h-409z" />
<glyph unicode="J" d="M-9 264q0 14 1 27.5t3 27.5l35 204h409l-20 -113h432l75 432h410l-91 -523q-23 -133 -134 -226q-110 -93 -242 -93h-614q-117 0 -190 75q-74 77 -74 189zM947 956l72 409h410l-73 -409h-409z" />
<glyph unicode="K" horiz-adv-x="1308" d="M-61 0l145 842h913l-132 -159l323 -683h-478l-264 560l-100 -560h-407zM105 956l72 409h410l-73 -409h-409zM612 956l339 409h478l-339 -409h-478z" />
<glyph unicode="L" horiz-adv-x="1252" d="M-61 0l145 842h410l-75 -432h728l-73 -410h-1135zM105 956l72 409h410l-73 -409h-409z" />
<glyph unicode="M" horiz-adv-x="1593" d="M-61 0l145 842h1479l-148 -842h-409l100 571l-430 -571l-230 571l-100 -571h-407zM105 956l72 409h410l164 -409h-646zM938 956l309 409h410l-73 -409h-646z" />
<glyph unicode="N" d="M-61 0l145 842h410l-148 -842h-407zM105 956l72 409h933q117 0 192 -75t75 -189q0 -14 -1.5 -27t-3.5 -27l-16 -91h-1251zM778 0l148 842h410l-148 -842h-410z" />
<glyph unicode="O" d="M-9 264q0 14 1 27.5t3 27.5l89 523h410l-75 -432h432l75 432h410l-91 -523q-23 -133 -134 -226q-110 -93 -242 -93h-614q-117 0 -190 75q-74 77 -74 189zM105 956l16 91q22 132 132 225q111 93 243 93h614q117 0 192 -75t75 -189q0 -14 -1.5 -27t-3.5 -27l-16 -91h-1251z " />
<glyph unicode="P" d="M-61 0l145 842h1252q-23 -132 -132 -226q-110 -93 -241 -93h-524l-93 -523h-407zM105 956l72 409h933q117 0 192 -75t75 -189q0 -14 -1.5 -27t-3.5 -27l-16 -91h-1251z" />
<glyph unicode="Q" horiz-adv-x="1479" d="M-9 264q0 14 1 27.5t3 27.5l89 523h410l-75 -432h432l75 432h410l-75 -432h113l-72 -410h-1047q-117 0 -190 75q-74 77 -74 189zM105 956l16 91q22 132 132 225q111 93 243 93h614q117 0 192 -75t75 -189q0 -14 -1.5 -27t-3.5 -27l-16 -91h-1251z" />
<glyph unicode="R" d="M-61 0l145 842h1252q-12 -70 -116 -159q61 -76 61 -137v-23l-93 -523h-410l94 523h-433l-93 -523h-407zM105 956l72 409h933q117 0 192 -75t75 -189q0 -14 -1.5 -27t-3.5 -27l-16 -91h-1251z" />
<glyph unicode="S" d="M-61 0l70 410h842l21 113h-524q-118 0 -193 75q-75 76 -75 189q0 14 1 27.5t3 27.5h933q119 0 194 -75t75 -189q0 -14 -1.5 -27.5t-3.5 -27.5l-36 -204q-23 -133 -134 -226q-110 -93 -242 -93h-930zM105 956l16 91q22 132 132 225q111 93 243 93h933l-73 -409h-1251z" />
<glyph unicode="T" d="M105 956l72 409h1252l-73 -409h-1251zM357 0l148 842h410l-148 -842h-410z" />
<glyph unicode="U" d="M-9 264q0 14 1 27.5t3 27.5l89 523h410l-75 -432h432l75 432h410l-91 -523q-23 -133 -134 -226q-110 -93 -242 -93h-614q-117 0 -190 75q-74 77 -74 189zM105 956l72 409h410l-73 -409h-409zM947 956l72 409h410l-73 -409h-409z" />
<glyph unicode="V" horiz-adv-x="1297" d="M121 1365h409l30 -409h-410zM159 842h408l34 -432l184 432h407l-357 -842h-614zM833 956l175 409h410l-176 -409h-409z" />
<glyph unicode="W" horiz-adv-x="2002" d="M121 1365h409l30 -409h-410zM159 842h408l20 -250l105 250h671l21 -250l104 250h410l-357 -842h-524l-41 546l-232 -546h-523zM742 956l175 409h410l29 -409h-614zM1538 956l175 409h410l-175 -409h-410z" />
<glyph unicode="X" d="M-118 0l562 683l-75 159h682l-129 -159l323 -683h-478l-150 314l-260 -314h-475zM121 1365h477l151 -314l259 314h478l-339 -409h-833z" />
<glyph unicode="Y" d="M121 1365h477l151 -314l259 314h478l-341 -409h-829zM357 0l112 637l-98 205h678l-171 -205l-111 -637h-410z" />
<glyph unicode="Z" d="M-61 0l607 842h503l-312 -432h524l-73 -410h-1249zM105 956l72 409h1252l-298 -409h-1026z" />
<glyph unicode="[" horiz-adv-x="683" d="M-82 -112l280 1591h569l-62 -341h-227l-159 -910h227l-61 -340h-567z" />
<glyph unicode="\" horiz-adv-x="612" d="M134 -130v1568l346 59l-2 -1568z" />
<glyph unicode="]" horiz-adv-x="683" d="M-82 -112l62 340h225l159 910h-227l61 341h569l-282 -1591h-567z" />
<glyph unicode="a" horiz-adv-x="1297" d="M-118 0l357 842h305h105l-135 -319h216l-25 319h410l61 -842h-409l-14 182h-387l-77 -182h-407zM287 956l175 409h614l30 -409h-819z" />
<glyph unicode="b" horiz-adv-x="1411" d="M-61 0l145 842h1297q-11 -71 -116 -159q64 -76 64 -137q0 -5 -0.5 -11t-1.5 -12l-37 -204q-22 -130 -133 -226q-110 -93 -242 -93h-976zM105 956l72 409h979q116 0 191 -75t75 -189q0 -14 -1 -27t-3 -27l-16 -91h-1297zM419 410h478l20 113h-478z" />
<glyph unicode="c" d="M-9 262q0 14 1 28.5t3 28.5l89 523h410l-75 -432h842l-73 -410h-933q-117 0 -190 75q-74 77 -74 187zM105 956l16 91q22 132 132 225q111 93 243 93h933l-73 -409h-1251z" />
<glyph unicode="d" d="M-61 0l145 842h410l-75 -432h432l75 432h410l-91 -523q-23 -133 -134 -226q-110 -93 -242 -93h-930zM105 956l72 409h933q117 0 192 -75t75 -189q0 -14 -1.5 -27t-3.5 -27l-16 -91h-1251z" />
<glyph unicode="e" horiz-adv-x="1252" d="M-61 0l145 842h1138l-55 -319h-728l-20 -113h728l-73 -410h-1135zM105 956l72 409h1138l-73 -409h-1137z" />
<glyph unicode="f" horiz-adv-x="1252" d="M-61 0l145 842h1138l-55 -319h-728l-93 -523h-407zM105 956l72 409h1138l-73 -409h-1137z" />
<glyph unicode="g" d="M-9 262q0 14 1 28.5t3 28.5l89 523h410l-75 -432h432l21 113h-183l55 319h592l-91 -523q-23 -133 -134 -226q-110 -93 -242 -93h-614q-117 0 -190 75q-74 77 -74 187zM105 956l16 91q22 132 132 225q111 93 243 93h933l-73 -409h-1251z" />
<glyph unicode="h" d="M-61 0l145 842h1252l-148 -842h-410l94 523h-433l-93 -523h-407zM105 956l72 409h410l-73 -409h-409zM947 956l72 409h410l-73 -409h-409z" />
<glyph unicode="i" horiz-adv-x="523" d="M-61 0l145 842h410l-148 -842h-407zM105 956l72 409h410l-73 -409h-409z" />
<glyph unicode="j" d="M-9 264q0 14 1 27.5t3 27.5l35 204h409l-20 -113h432l75 432h410l-91 -523q-23 -133 -134 -226q-110 -93 -242 -93h-614q-117 0 -190 75q-74 77 -74 189zM947 956l72 409h410l-73 -409h-409z" />
<glyph unicode="k" horiz-adv-x="1308" d="M-61 0l145 842h913l-132 -159l323 -683h-478l-264 560l-100 -560h-407zM105 956l72 409h410l-73 -409h-409zM612 956l339 409h478l-339 -409h-478z" />
<glyph unicode="l" horiz-adv-x="1252" d="M-61 0l145 842h410l-75 -432h728l-73 -410h-1135zM105 956l72 409h410l-73 -409h-409z" />
<glyph unicode="m" horiz-adv-x="1593" d="M-61 0l145 842h1479l-148 -842h-409l100 571l-430 -571l-230 571l-100 -571h-407zM105 956l72 409h410l164 -409h-646zM938 956l309 409h410l-73 -409h-646z" />
<glyph unicode="n" d="M-61 0l145 842h410l-148 -842h-407zM105 956l72 409h933q117 0 192 -75t75 -189q0 -14 -1.5 -27t-3.5 -27l-16 -91h-1251zM778 0l148 842h410l-148 -842h-410z" />
<glyph unicode="o" d="M-9 264q0 14 1 27.5t3 27.5l89 523h410l-75 -432h432l75 432h410l-91 -523q-23 -133 -134 -226q-110 -93 -242 -93h-614q-117 0 -190 75q-74 77 -74 189zM105 956l16 91q22 132 132 225q111 93 243 93h614q117 0 192 -75t75 -189q0 -14 -1.5 -27t-3.5 -27l-16 -91h-1251z " />
<glyph unicode="p" d="M-61 0l145 842h1252q-23 -132 -132 -226q-110 -93 -241 -93h-524l-93 -523h-407zM105 956l72 409h933q117 0 192 -75t75 -189q0 -14 -1.5 -27t-3.5 -27l-16 -91h-1251z" />
<glyph unicode="q" horiz-adv-x="1479" d="M-9 264q0 14 1 27.5t3 27.5l89 523h410l-75 -432h432l75 432h410l-75 -432h113l-72 -410h-1047q-117 0 -190 75q-74 77 -74 189zM105 956l16 91q22 132 132 225q111 93 243 93h614q117 0 192 -75t75 -189q0 -14 -1.5 -27t-3.5 -27l-16 -91h-1251z" />
<glyph unicode="r" d="M-61 0l145 842h1252q-12 -70 -116 -159q61 -76 61 -137v-23l-93 -523h-410l94 523h-433l-93 -523h-407zM105 956l72 409h933q117 0 192 -75t75 -189q0 -14 -1.5 -27t-3.5 -27l-16 -91h-1251z" />
<glyph unicode="s" d="M-61 0l70 410h842l21 113h-524q-118 0 -193 75q-75 76 -75 189q0 14 1 27.5t3 27.5h933q119 0 194 -75t75 -189q0 -14 -1.5 -27.5t-3.5 -27.5l-36 -204q-23 -133 -134 -226q-110 -93 -242 -93h-930zM105 956l16 91q22 132 132 225q111 93 243 93h933l-73 -409h-1251z" />
<glyph unicode="t" d="M105 956l72 409h1252l-73 -409h-1251zM357 0l148 842h410l-148 -842h-410z" />
<glyph unicode="u" d="M-9 264q0 14 1 27.5t3 27.5l89 523h410l-75 -432h432l75 432h410l-91 -523q-23 -133 -134 -226q-110 -93 -242 -93h-614q-117 0 -190 75q-74 77 -74 189zM105 956l72 409h410l-73 -409h-409zM947 956l72 409h410l-73 -409h-409z" />
<glyph unicode="v" horiz-adv-x="1297" d="M121 1365h409l30 -409h-410zM159 842h408l34 -432l184 432h407l-357 -842h-614zM833 956l175 409h410l-176 -409h-409z" />
<glyph unicode="w" horiz-adv-x="2002" d="M121 1365h409l30 -409h-410zM159 842h408l20 -250l105 250h671l21 -250l104 250h410l-357 -842h-524l-41 546l-232 -546h-523zM742 956l175 409h410l29 -409h-614zM1538 956l175 409h410l-175 -409h-410z" />
<glyph unicode="x" d="M-118 0l562 683l-75 159h682l-129 -159l323 -683h-478l-150 314l-260 -314h-475zM121 1365h477l151 -314l259 314h478l-339 -409h-833z" />
<glyph unicode="y" d="M121 1365h477l151 -314l259 314h478l-341 -409h-829zM357 0l112 637l-98 205h678l-171 -205l-111 -637h-410z" />
<glyph unicode="z" d="M-61 0l607 842h503l-312 -432h524l-73 -410h-1249zM105 956l72 409h1252l-298 -409h-1026z" />
<glyph unicode="{" horiz-adv-x="796" d="M52 660l21 114q48 0 87 39q40 40 52 97l52 296q18 114 112 193q95 80 209 80h296l-62 -341h-227l-60 -342q-9 -47 -48 -80q-38 -33 -86 -33q21 0 38.5 -7.5t30 -20t20 -30t7.5 -36.5q0 -5 -0.5 -10t-1.5 -10l-60 -341h228l-62 -340h-295q-100 0 -164 63t-64 161 q0 11 0.5 22.5t1.5 24.5l69 387q1 5 1.5 10t0.5 11q0 42 -25.5 67.5t-70.5 25.5z" />
<glyph unicode="|" horiz-adv-x="455" d="M-82 -112l280 1591h341l-282 -1591h-339z" />
<glyph unicode="}" horiz-adv-x="796" d="M-82 -112l62 340h225l59 341q4 24 16.5 45t30.5 36t40.5 24t46.5 9q-42 0 -68.5 27t-26.5 66q0 5 0.5 10t1.5 10l59 342h-227l61 341h296q100 0 163 -64q64 -63 64 -161q0 -11 -0.5 -23t-1.5 -25l-52 -296q-3 -14 -3 -27q0 -48 25.5 -78.5t65.5 -30.5l-20 -114 q-46 0 -86 -33q-39 -33 -48 -81l-69 -387q-18 -112 -113 -192q-94 -79 -207 -79h-294z" />
<glyph unicode="&#xa1;" horiz-adv-x="455" d="M-61 0l159 910h341l-161 -910h-339zM116 1024l61 341h342l-62 -341h-341z" />
<glyph unicode="&#xbf;" horiz-adv-x="1138" d="M-18 225q0 28 4 48l44 250q18 114 112 193q95 80 208 80h410l21 114h341l-32 -182q-20 -115 -115 -194q-94 -79 -208 -79h-410l-18 -114h683l-62 -341h-751q-100 0 -164 63q-63 64 -63 162zM799 1024l61 341h341l-61 -341h-341z" />
<glyph unicode="&#x2000;" horiz-adv-x="748" />
<glyph unicode="&#x2001;" horiz-adv-x="1497" />
<glyph unicode="&#x2002;" horiz-adv-x="748" />
<glyph unicode="&#x2003;" horiz-adv-x="1497" />
<glyph unicode="&#x2004;" horiz-adv-x="499" />
<glyph unicode="&#x2005;" horiz-adv-x="374" />
<glyph unicode="&#x2006;" horiz-adv-x="249" />
<glyph unicode="&#x2007;" horiz-adv-x="249" />
<glyph unicode="&#x2008;" horiz-adv-x="187" />
<glyph unicode="&#x2009;" horiz-adv-x="299" />
<glyph unicode="&#x200a;" horiz-adv-x="83" />
<glyph unicode="&#x2018;" horiz-adv-x="455" d="M7 796l59 342l212 227l-41 -227h170l-59 -342h-341z" />
<glyph unicode="&#x2019;" horiz-adv-x="455" d="M48 1024l59 341h341l-59 -341l-212 -228l41 228h-170z" />
<glyph unicode="&#x201a;" horiz-adv-x="455" d="M48 0l59 341h341l-59 -341l-212 -225l41 225h-170z" />
<glyph unicode="&#x201c;" horiz-adv-x="853" d="M7 796l59 342l212 227l-41 -227h170l-59 -342h-341zM405 796l59 342l212 227l-41 -227h171l-60 -342h-341z" />
<glyph unicode="&#x201d;" horiz-adv-x="853" d="M48 1024l59 341h341l-59 -341l-212 -228l41 228h-170zM446 1024l59 341h342l-60 -341l-211 -228l41 228h-171z" />
<glyph unicode="&#x201e;" horiz-adv-x="853" d="M48 0l59 341h341l-59 -341l-212 -225l41 225h-170zM446 0l59 341h342l-60 -341l-211 -225l41 225h-171z" />
<glyph unicode="&#x202f;" horiz-adv-x="299" />
<glyph unicode="&#x205f;" horiz-adv-x="374" />
</font>
</defs>
</svg>
